<svg width="56" height="56" viewBox="0 0 56 56" fill="none" xmlns="http://www.w3.org/2000/svg">
  <g clip-path="url(#clip0_88_122)">
    <rect width="56" height="56" rx="28" fill="#0E3383" />
    <path d="M29.9996 37.5005V46.1672M29.9996 54.8338H30.0213M26.9995 26.4326L9.1789 57.2136C8.19046 58.9209 7.69624 59.7745 7.76928 60.4752C7.83299 61.0863 8.15316 61.6416 8.6501 62.0029C9.21984 62.4172 10.2062 62.4172 12.179 62.4172H47.8202C49.793 62.4172 50.7794 62.4172 51.3492 62.0029C51.8461 61.6416 52.1663 61.0863 52.23 60.4752C52.303 59.7745 51.8088 58.9209 50.8204 57.2136L32.9998 26.4326C32.0149 24.7314 31.5224 23.8808 30.8799 23.5951C30.3195 23.3459 29.6797 23.3459 29.1193 23.5951C28.4768 23.8808 27.9844 24.7314 26.9995 26.4326Z" stroke="white" stroke-width="3" stroke-linecap="round" stroke-linejoin="round" />
  </g>
  <defs>
    <clipPath id="clip0_88_122">
      <rect width="56" height="56" rx="28" fill="white" />
    </clipPath>
  </defs>
</svg>