<svg width="56" height="56" viewBox="0 0 56 56" fill="none" xmlns="http://www.w3.org/2000/svg">
  <g clip-path="url(#clip0_88_113)">
    <rect width="56" height="56" rx="28" fill="#0E3383" />
    <path d="M8 35.4036C8 32.4193 10.4193 30 13.4036 30C14.9541 30 16.3307 29.0078 16.8211 27.5368L17 27C17.0844 26.7469 17.1266 26.6203 17.1717 26.508C17.7481 25.0742 19.0988 24.1007 20.6412 24.0073C20.762 24 20.8954 24 21.1623 24H34.8377C35.1046 24 35.238 24 35.3588 24.0073C36.9012 24.1007 38.2519 25.0742 38.8283 26.508C38.8734 26.6203 38.9156 26.7469 39 27L39.1789 27.5368C39.6693 29.0078 41.0459 30 42.5964 30C45.5807 30 48 32.4193 48 35.4036V52.4C48 55.7603 48 57.4405 47.346 58.7239C46.7708 59.8529 45.8529 60.7708 44.7239 61.346C43.4405 62 41.7603 62 38.4 62H17.6C14.2397 62 12.5595 62 11.2761 61.346C10.1471 60.7708 9.2292 59.8529 8.65396 58.7239C8 57.4405 8 55.7603 8 52.4V35.4036Z" stroke="white" stroke-width="3" stroke-linecap="round" stroke-linejoin="round" />
    <path d="M28 53C32.9706 53 37 48.9706 37 44C37 39.0294 32.9706 35 28 35C23.0294 35 19 39.0294 19 44C19 48.9706 23.0294 53 28 53Z" stroke="white" stroke-width="3" stroke-linecap="round" stroke-linejoin="round" />
  </g>
  <defs>
    <clipPath id="clip0_88_113">
      <rect width="56" height="56" rx="28" fill="white" />
    </clipPath>
  </defs>
</svg>