<svg width="56" height="56" viewBox="0 0 56 56" fill="none" xmlns="http://www.w3.org/2000/svg">
  <g clip-path="url(#clip0_88_118)">
    <rect width="56" height="56" rx="28" fill="#0E3383" />
    <path d="M35.0003 12.6665V15.9332C35.0003 17.24 35.0003 17.8934 34.746 18.3925C34.5223 18.8315 34.1654 19.1885 33.7263 19.4122C33.2272 19.6665 32.5738 19.6665 31.267 19.6665H24.7337C23.4269 19.6665 22.7735 19.6665 22.2743 19.4122C21.8353 19.1885 21.4783 18.8315 21.2546 18.3925C21.0003 17.8934 21.0003 17.24 21.0003 15.9332V12.6665M19.1337 59.3332H36.867C39.4806 59.3332 40.7874 59.3332 41.7856 58.8245C42.6637 58.3771 43.3776 57.6632 43.825 56.7851C44.3337 55.7869 44.3337 54.4801 44.3337 51.8665V20.1332C44.3337 17.5196 44.3337 16.2128 43.825 15.2145C43.3776 14.3365 42.6637 13.6225 41.7856 13.1751C40.7874 12.6665 39.4806 12.6665 36.867 12.6665H19.1337C16.5201 12.6665 15.2133 12.6665 14.215 13.1751C13.3369 13.6225 12.623 14.3365 12.1756 15.2145C11.667 16.2128 11.667 17.5196 11.667 20.1332V51.8665C11.667 54.4801 11.667 55.7869 12.1756 56.7851C12.623 57.6632 13.3369 58.3771 14.215 58.8245C15.2133 59.3332 16.5201 59.3332 19.1337 59.3332Z" stroke="white" stroke-width="3" stroke-linecap="round" stroke-linejoin="round" />
  </g>
  <defs>
    <clipPath id="clip0_88_118">
      <rect width="56" height="56" rx="28" fill="white" />
    </clipPath>
  </defs>
</svg>